# xmcd
# Copyright (C) 1995-1998 Ti Kan
#
# Track frame offsets:
#       150
#       21709
#       43847
#       62619
#       82570
#       97944
#       113432
#       139479
#       151589
#       165740
#       181850
#       201235
#       217550
#       241192
#       254529
#       259013
#       279682
#       295676
#       308850
#       327202
#
# Disc length: 4617 seconds
#
# Revision: 0
# Processed by: cddbd v1.5.2PL0 Copyright (c) Steve Scherf et al.
# Submitted via: CD-Transfer v1.0
#
DISCID=0d120714
DTITLE=Sämi 18. Nov - 
DYEAR=1900
DGENRE=
TTITLE0=Sämi 18. Nov 1
TTITLE1=Sämi 18. Nov 2
TTITLE2=Sämi 18. Nov 3
TTITLE3=Sämi 18. Nov 4
TTITLE4=Sämi 18. Nov 5
TTITLE5=Sämi 18. Nov 6
TTITLE6=Sämi 18. Nov 7
TTITLE7=Sämi 18. Nov 8
TTITLE8=Sämi 18. Nov 9
TTITLE9=Sämi 18. Nov 10
TTITLE10=Sämi 18. Nov 11
TTITLE11=Sämi 18. Nov 12
TTITLE12=Sämi 18. Nov 13
TTITLE13=Sämi 18. Nov 14
TTITLE14=Sämi 18. Nov 15
TTITLE15=Sämi 18. Nov 16
TTITLE16=Sämi 18. Nov 17
TTITLE17=Sämi 18. Nov 18
TTITLE18=Sämi 18. Nov 19
TTITLE19=Sämi 18. Nov 20
EXTD=
EXTT0=
EXTT1=
EXTT2=
EXTT3=
EXTT4=
EXTT5=
EXTT6=
EXTT7=
EXTT8=
EXTT9=
EXTT10=
EXTT11=
EXTT12=
EXTT13=
EXTT14=
EXTT15=
EXTT16=
EXTT17=
EXTT18=
EXTT19=
PLAYORDER=
